<svg width="122" height="33" viewBox="0 0 122 33" fill="none" xmlns="http://www.w3.org/2000/svg">
<path d="M42.5275 25L38.5475 12.0311H38.4458C38.4609 12.3401 38.4835 12.8075 38.5136 13.4331C38.5513 14.0512 38.5852 14.7108 38.6154 15.4118C38.6455 16.1128 38.6606 16.746 38.6606 17.3113V25H35.5286V8.4694H40.3001L44.2123 21.1104H44.2801L48.4297 8.4694H53.2012V25H49.9335V17.1757C49.9335 16.6556 49.9411 16.0563 49.9561 15.3779C49.9788 14.6995 50.0051 14.055 50.0353 13.4444C50.0654 12.8263 50.0881 12.3627 50.1031 12.0537H50.0014L45.7387 25H42.5275ZM60.2304 12.1215C61.3988 12.1215 62.4051 12.3476 63.2494 12.7999C64.0936 13.2447 64.7456 13.8929 65.2055 14.7447C65.6653 15.5965 65.8952 16.6367 65.8952 17.8654V19.5388H57.7429C57.7806 20.5112 58.0708 21.2763 58.6136 21.8341C59.1638 22.3844 59.9252 22.6595 60.8975 22.6595C61.7041 22.6595 62.4428 22.5766 63.1137 22.4107C63.7846 22.2449 64.4743 21.9961 65.1828 21.6645V24.3329C64.5572 24.6419 63.9014 24.8681 63.2155 25.0113C62.537 25.1545 61.7116 25.2261 60.7393 25.2261C59.4729 25.2261 58.3497 24.9925 57.3698 24.5251C56.3974 24.0578 55.6323 23.3454 55.0745 22.3881C54.5243 21.4308 54.2491 20.2247 54.2491 18.7699C54.2491 17.2925 54.4979 16.0638 54.9954 15.0839C55.5004 14.0964 56.2014 13.3577 57.0985 12.8678C57.9955 12.3703 59.0395 12.1215 60.2304 12.1215ZM60.2531 14.5751C59.5822 14.5751 59.0244 14.7899 58.5796 15.2196C58.1424 15.6492 57.8899 16.3239 57.8221 17.2435H62.6614C62.6539 16.7309 62.5597 16.2749 62.3787 15.8754C62.2054 15.4759 61.9415 15.1593 61.5873 14.9256C61.2405 14.6919 60.7958 14.5751 60.2531 14.5751ZM70.6178 25.2261C69.2082 25.2261 68.0587 24.6759 67.1692 23.5753C66.2873 22.4673 65.8463 20.8429 65.8463 18.7021C65.8463 16.5387 66.2948 14.903 67.1918 13.7949C68.0889 12.6793 69.261 12.1215 70.7083 12.1215C71.3113 12.1215 71.8427 12.2044 72.3025 12.3703C72.7623 12.5361 73.1581 12.7585 73.4898 13.0374C73.829 13.3163 74.1154 13.6291 74.3491 13.9758H74.4621C74.4169 13.7346 74.3604 13.3803 74.2925 12.913C74.2322 12.4381 74.2021 11.9519 74.2021 11.4544V7.40655H77.662V25H75.0162L74.3491 23.3605H74.2021C73.9835 23.7073 73.7084 24.0238 73.3767 24.3103C73.0526 24.5892 72.6644 24.8116 72.2121 24.9774C71.7598 25.1432 71.2284 25.2261 70.6178 25.2261ZM71.8276 22.4786C72.7699 22.4786 73.4332 22.1997 73.8177 21.6419C74.2096 21.0765 74.4169 20.2285 74.4395 19.0978V18.7247C74.4395 17.496 74.2511 16.5576 73.8742 15.9093C73.4973 15.2535 72.7963 14.9256 71.7711 14.9256C71.0098 14.9256 70.4143 15.2535 69.9846 15.9093C69.555 16.5651 69.3401 17.5111 69.3401 18.7473C69.3401 19.9835 69.555 20.9145 69.9846 21.5401C70.4218 22.1658 71.0362 22.4786 71.8276 22.4786ZM82.6334 12.3589V25H79.1848V12.3589H82.6334ZM80.9147 7.40655C81.4273 7.40655 81.8683 7.52716 82.2376 7.76837C82.607 8.00205 82.7917 8.44301 82.7917 9.09127C82.7917 9.73199 82.607 10.1767 82.2376 10.4255C81.8683 10.6667 81.4273 10.7873 80.9147 10.7873C80.3946 10.7873 79.9499 10.6667 79.5805 10.4255C79.2187 10.1767 79.0378 9.73199 79.0378 9.09127C79.0378 8.44301 79.2187 8.00205 79.5805 7.76837C79.9499 7.52716 80.3946 7.40655 80.9147 7.40655Z" fill="#2072EC"/>
<path d="M84.5953 25V8.4694H86.5174V23.2814H93.8556V25H84.5953ZM96.2038 12.6077V25H94.3269V12.6077H96.2038ZM95.2879 7.97189C95.597 7.97189 95.8608 8.07366 96.0794 8.27718C96.3056 8.47316 96.4186 8.78222 96.4186 9.20434C96.4186 9.61892 96.3056 9.92798 96.0794 10.1315C95.8608 10.335 95.597 10.4368 95.2879 10.4368C94.9638 10.4368 94.6924 10.335 94.4738 10.1315C94.2628 9.92798 94.1573 9.61892 94.1573 9.20434C94.1573 8.78222 94.2628 8.47316 94.4738 8.27718C94.6924 8.07366 94.9638 7.97189 95.2879 7.97189ZM103.968 12.3816C105.438 12.3816 106.55 12.7434 107.303 13.467C108.057 14.1831 108.434 15.3364 108.434 16.9269V25H106.58V17.0513C106.58 16.0186 106.342 15.246 105.868 14.7334C105.4 14.2208 104.68 13.9645 103.708 13.9645C102.336 13.9645 101.371 14.3527 100.813 15.1291C100.256 15.9055 99.9767 17.0324 99.9767 18.5099V25H98.0997V12.6077H99.6148L99.8975 14.3942H99.9993C100.263 13.957 100.599 13.5914 101.006 13.2974C101.413 12.9959 101.869 12.7698 102.374 12.619C102.879 12.4607 103.41 12.3816 103.968 12.3816ZM114.989 12.3816C116.044 12.3816 116.948 12.6152 117.702 13.0826C118.456 13.5499 119.033 14.2057 119.432 15.05C119.832 15.8867 120.031 16.8666 120.031 17.9898V19.1544H111.472C111.495 20.6092 111.857 21.7172 112.558 22.4786C113.259 23.2399 114.246 23.6206 115.52 23.6206C116.304 23.6206 116.997 23.549 117.6 23.4057C118.203 23.2625 118.829 23.0515 119.477 22.7726V24.4234C118.852 24.7023 118.23 24.9058 117.612 25.0339C117.001 25.1621 116.278 25.2261 115.441 25.2261C114.25 25.2261 113.21 24.9849 112.32 24.5025C111.438 24.0125 110.752 23.2964 110.262 22.3542C109.772 21.412 109.527 20.2587 109.527 18.8943C109.527 17.5601 109.75 16.4068 110.194 15.4344C110.647 14.4545 111.28 13.7007 112.094 13.173C112.916 12.6454 113.88 12.3816 114.989 12.3816ZM114.966 13.9193C113.963 13.9193 113.164 14.2472 112.569 14.903C111.973 15.5588 111.619 16.4746 111.506 17.6506H118.064C118.056 16.9118 117.94 16.2636 117.713 15.7058C117.495 15.1404 117.159 14.7032 116.707 14.3942C116.255 14.0776 115.674 13.9193 114.966 13.9193Z" fill="black"/>
<path d="M28.3023 16.7241H23.1564L19.297 28.3023L11.5782 5.14588L7.7188 16.7241H2.57294" stroke="black" stroke-width="2.57293" stroke-linecap="round" stroke-linejoin="round"/>
</svg>
